<?xml version="1.0" encoding="utf-8"?>
<!-- Generator: Adobe Illustrator 22.1.0, SVG Export Plug-In . SVG Version: 6.00 Build 0)  -->
<svg version="1.1" xmlns="http://www.w3.org/2000/svg" xmlns:xlink="http://www.w3.org/1999/xlink" x="0px" y="0px"
	 viewBox="0 0 1080 1920" style="enable-background:new 0 0 1080 1920;" xml:space="preserve">
<style type="text/css">
	.st0{fill:#0F0E0E;}
	.st1{fill:#4F7CA9;}
	.st2{fill:#B8151C;}
	.st3{fill:#F38020;}
	.st4{fill:#9A1217;}
	.st5{fill:#4F4F4F;}
</style>
<g id="fundo">
	<rect y="1" class="st0" width="1080" height="1920"/>
</g>
<g id="logo">
	<g>
		<g id="XMLID_1_">
			<g>
				<polygon class="st1" points="673.6,534.1 1061.1,1263.5 798.7,1263.5 684.9,1011 561.1,738.7 				"/>
				<path class="st2" d="M684.9,1011l113.9,252.5c-164.5-106.5-331-114.6-500,0H21.5l33.6-59.7c124.2-108.2,248.4-187.3,372.4-197.8
					C518.1,995.6,605,994.4,684.9,1011z"/>
				<polygon class="st3" points="673.6,534.1 561.1,738.7 451.8,498.5 556.2,313 672.2,531.5 				"/>
				<path class="st4" d="M451.8,498.5l109.3,240.2l-133.7,267.3c-124,10.5-248.2,89.6-372.4,197.8L451.8,498.5z"/>
			</g>
			<g>
			</g>
		</g>
	</g>
	<g id="XMLID_2_">
		<g>
			<polygon class="st5" points="860.5,1422.5 927.5,1590.5 843.5,1590.5 843.5,1557.5 876.5,1557.5 843.5,1472.5 797.5,1590.5 
				759.5,1590.5 826.5,1422.5 			"/>
			<path class="st5" d="M725.5,1523.5v67h-168v-168h168v67l-17,17L725.5,1523.5z M692.5,1557.5v-34h-102v34H692.5z M692.5,1489.5
				v-33h-102v33H692.5z"/>
			<polygon class="st5" points="523.5,1557.5 523.5,1590.5 356.5,1590.5 356.5,1489.5 523.5,1489.5 523.5,1522.5 389.5,1522.5 
				389.5,1557.5 			"/>
			<rect x="356.5" y="1422.5" class="st5" width="167" height="33"/>
			<polygon class="st5" points="255.5,1422.5 322.5,1590.5 238.5,1590.5 238.5,1557.5 271.5,1557.5 238.5,1472.5 192.5,1590.5 
				154.5,1590.5 221.5,1422.5 			"/>
		</g>
		<g>
		</g>
	</g>
</g>
</svg>
